<svg xmlns="http://www.w3.org/2000/svg" xmlns:xlink="http://www.w3.org/1999/xlink" viewBox="0,0,256,256" width="24px" height="24px"><g fill="#ffffff" fill-rule="nonzero" stroke="none" stroke-width="1" stroke-linecap="butt" stroke-linejoin="miter" stroke-miterlimit="10" stroke-dasharray="" stroke-dashoffset="0" font-family="none" font-weight="none" font-size="none" text-anchor="none" style="mix-blend-mode: normal"><g transform="scale(2,2)"><path d="M64,20c-1.7,0 -3,1.3 -3,3v58.8l-14.9,-14.9c-1.2,-1.2 -3.1,-1.2 -4.2,0c-1.2,1.2 -1.2,3.1 0,4.2l20,20c0.6,0.6 1.4,0.9 2.1,0.9c0.7,0 1.5,-0.3 2.1,-0.9l20,-20c1.2,-1.2 1.2,-3.1 0,-4.2c-1.2,-1.2 -3.1,-1.2 -4.2,0l-14.9,14.9v-58.8c0,-1.7 -1.3,-3 -3,-3zM98.2,113.8c0,-1.7 -1.3,-3 -3,-3h-62.4c-1.7,0 -3,1.3 -3,3c0,1.7 1.3,3 3,3h62.4c1.7,0 3,-1.4 3,-3z"></path></g></g></svg>
